
<svg width="333" height="333" viewBox="0 0 333 333" fill="none" xmlns="http://www.w3.org/2000/svg">
<path d="M217.143 144.857H197V138.143H217.143V118H223.857V138.143H244V144.857H223.857V165H217.143V144.857Z" fill="#F49910"/>
<path d="M88 215V199.775C88 196.694 88.7888 193.862 90.3665 191.279C91.9441 188.696 94.0402 186.725 96.6545 185.366C102.244 182.556 107.923 180.449 113.693 179.045C119.463 177.64 125.323 176.937 131.273 176.937C137.223 176.937 143.083 177.64 148.852 179.045C154.622 180.449 160.302 182.556 165.891 185.366C168.505 186.725 170.601 188.696 172.179 191.279C173.757 193.862 174.545 196.694 174.545 199.775V215H88ZM185.364 215V198.687C185.364 194.7 184.259 190.871 182.051 187.201C179.842 183.53 176.709 180.381 172.652 177.753C177.25 178.297 181.577 179.226 185.634 180.54C189.691 181.854 193.477 183.462 196.993 185.366C200.239 187.178 202.718 189.195 204.431 191.415C206.144 193.635 207 196.059 207 198.687V215H185.364ZM131.273 171.5C125.323 171.5 120.229 169.37 115.992 165.111C111.755 160.852 109.636 155.731 109.636 149.75C109.636 143.769 111.755 138.648 115.992 134.389C120.229 130.13 125.323 128 131.273 128C137.223 128 142.316 130.13 146.553 134.389C150.791 138.648 152.909 143.769 152.909 149.75C152.909 155.731 150.791 160.852 146.553 165.111C142.316 169.37 137.223 171.5 131.273 171.5ZM185.364 149.75C185.364 155.731 183.245 160.852 179.008 165.111C174.771 169.37 169.677 171.5 163.727 171.5C162.736 171.5 161.473 171.387 159.941 171.16C158.408 170.934 157.146 170.684 156.155 170.412C158.589 167.512 160.459 164.295 161.766 160.761C163.074 157.227 163.727 153.556 163.727 149.75C163.727 145.944 163.074 142.273 161.766 138.739C160.459 135.205 158.589 131.987 156.155 129.087C157.417 128.634 158.679 128.34 159.941 128.204C161.203 128.068 162.465 128 163.727 128C169.677 128 174.771 130.13 179.008 134.389C183.245 138.648 185.364 143.769 185.364 149.75ZM98.8182 204.125H163.727V199.775C163.727 198.778 163.479 197.872 162.984 197.056C162.488 196.241 161.834 195.606 161.023 195.153C156.155 192.706 151.241 190.871 146.283 189.648C141.325 188.424 136.321 187.812 131.273 187.812C126.224 187.812 121.221 188.424 116.263 189.648C111.304 190.871 106.391 192.706 101.523 195.153C100.711 195.606 100.058 196.241 99.5619 197.056C99.0661 197.872 98.8182 198.778 98.8182 199.775V204.125ZM131.273 160.625C134.248 160.625 136.795 159.56 138.913 157.43C141.032 155.301 142.091 152.741 142.091 149.75C142.091 146.759 141.032 144.199 138.913 142.07C136.795 139.94 134.248 138.875 131.273 138.875C128.298 138.875 125.751 139.94 123.632 142.07C121.514 144.199 120.455 146.759 120.455 149.75C120.455 152.741 121.514 155.301 123.632 157.43C125.751 159.56 128.298 160.625 131.273 160.625Z" fill="#E8EAED"/>
</svg>
