<svg width="128" height="131" viewBox="0 0 128 131" fill="none" xmlns="http://www.w3.org/2000/svg">
<path d="M81.8414 123.959L54.0153 96.1212L63.1816 86.9512L81.8414 105.619L118.834 68.6112L128 77.7812L81.8414 123.959ZM117.852 58.95H104.757V26.2H91.6624V45.85H26.1893V26.2H13.0946V117.9H52.3785V131H13.0946C9.49361 131 6.41091 129.717 3.84655 127.152C1.28218 124.586 0 121.502 0 117.9V26.2C0 22.5975 1.28218 19.5135 3.84655 16.9481C6.41091 14.3827 9.49361 13.1 13.0946 13.1H40.4297C41.63 9.27917 43.9761 6.14062 47.468 3.68437C50.9599 1.22812 54.7792 0 58.9258 0C63.2907 0 67.1918 1.22812 70.6292 3.68437C74.0665 6.14062 76.3853 9.27917 77.5857 13.1H104.757C108.358 13.1 111.441 14.3827 114.005 16.9481C116.569 19.5135 117.852 22.5975 117.852 26.2V58.95ZM58.9258 26.2C60.7809 26.2 62.3359 25.5723 63.5908 24.3169C64.8457 23.0615 65.4731 21.5058 65.4731 19.65C65.4731 17.7942 64.8457 16.2385 63.5908 14.9831C62.3359 13.7277 60.7809 13.1 58.9258 13.1C57.0708 13.1 55.5158 13.7277 54.2609 14.9831C53.006 16.2385 52.3785 17.7942 52.3785 19.65C52.3785 21.5058 53.006 23.0615 54.2609 24.3169C55.5158 25.5723 57.0708 26.2 58.9258 26.2Z" fill="white"/>
</svg>
