<svg width="120" height="126" viewBox="0 0 120 126" fill="none" xmlns="http://www.w3.org/2000/svg">
<path d="M12.5833 36.3333H95.4167V24.4999H12.5833V36.3333ZM12.5833 119.167C9.32917 119.167 6.5434 118.008 4.22604 115.691C1.90868 113.373 0.75 110.587 0.75 107.333V24.4999C0.75 21.2458 1.90868 18.46 4.22604 16.1426C6.5434 13.8253 9.32917 12.6666 12.5833 12.6666H18.5V0.833252H30.3333V12.6666H77.6667V0.833252H89.5V12.6666H95.4167C98.6708 12.6666 101.457 13.8253 103.774 16.1426C106.091 18.46 107.25 21.2458 107.25 24.4999V58.077C105.376 57.1895 103.453 56.4499 101.481 55.8582C99.509 55.2666 97.4875 54.8228 95.4167 54.527V48.1666H12.5833V107.333H49.8583C50.5486 109.503 51.3622 111.574 52.299 113.546C53.2358 115.518 54.3451 117.392 55.6271 119.167H12.5833ZM89.5 125.083C81.3153 125.083 74.3386 122.199 68.5698 116.43C62.8011 110.661 59.9167 103.685 59.9167 95.4999C59.9167 87.3152 62.8011 80.3385 68.5698 74.5697C74.3386 68.801 81.3153 65.9166 89.5 65.9166C97.6847 65.9166 104.661 68.801 110.43 74.5697C116.199 80.3385 119.083 87.3152 119.083 95.4999C119.083 103.685 116.199 110.661 110.43 116.43C104.661 122.199 97.6847 125.083 89.5 125.083ZM99.4104 109.552L103.552 105.41L92.4584 94.3166V77.7499H86.5417V96.6833L99.4104 109.552Z" fill="#E8EAED"/>
</svg>
