<svg width="102" height="102" viewBox="0 0 102 102" fill="none" xmlns="http://www.w3.org/2000/svg">
<circle cx="51" cy="51" r="51" fill="#430E18"/>
<path d="M51 47.7133C47.475 47.7133 44.4574 46.4582 41.9472 43.9479C39.4369 41.4377 38.1818 38.4201 38.1818 34.8951C38.1818 31.3701 39.4369 28.3525 41.9472 25.8422C44.4574 23.332 47.475 22.0769 51 22.0769C54.525 22.0769 57.5426 23.332 60.0529 25.8422C62.5631 28.3525 63.8182 31.3701 63.8182 34.8951C63.8182 38.4201 62.5631 41.4377 60.0529 43.9479C57.5426 46.4582 54.525 47.7133 51 47.7133ZM25.3636 73.3496V64.3769C25.3636 62.561 25.831 60.892 26.7656 59.3698C27.7003 57.8476 28.9421 56.686 30.4909 55.8849C33.8023 54.2292 37.1671 52.9874 40.5852 52.1596C44.0034 51.3317 47.475 50.9178 51 50.9178C54.525 50.9178 57.9966 51.3317 61.4148 52.1596C64.833 52.9874 68.1977 54.2292 71.5091 55.8849C73.058 56.686 74.2997 57.8476 75.2344 59.3698C76.169 60.892 76.6364 62.561 76.6364 64.3769V73.3496H25.3636ZM31.7727 66.9405H70.2273V64.3769C70.2273 63.7894 70.0804 63.2553 69.7867 62.7746C69.4929 62.2939 69.1057 61.9201 68.625 61.653C65.7409 60.211 62.8301 59.1295 59.8926 58.4084C56.9551 57.6874 53.9909 57.3269 51 57.3269C48.0091 57.3269 45.0449 57.6874 42.1074 58.4084C39.1699 59.1295 36.2591 60.211 33.375 61.653C32.8943 61.9201 32.5071 62.2939 32.2134 62.7746C31.9196 63.2553 31.7727 63.7894 31.7727 64.3769V66.9405ZM51 41.3042C52.7625 41.3042 54.2713 40.6766 55.5264 39.4215C56.7815 38.1664 57.4091 36.6576 57.4091 34.8951C57.4091 33.1326 56.7815 31.6238 55.5264 30.3687C54.2713 29.1136 52.7625 28.486 51 28.486C49.2375 28.486 47.7287 29.1136 46.4736 30.3687C45.2185 31.6238 44.5909 33.1326 44.5909 34.8951C44.5909 36.6576 45.2185 38.1664 46.4736 39.4215C47.7287 40.6766 49.2375 41.3042 51 41.3042Z" fill="#E8EAED"/>
</svg>
