<svg width="156" height="97" viewBox="0 0 156 97" fill="none" xmlns="http://www.w3.org/2000/svg">
<path d="M129.143 26.8571H109V20.1429H129.143V0H135.857V20.1429H156V26.8571H135.857V47H129.143V26.8571Z" fill="#F49910"/>
<path d="M0 97V81.775C0 78.6937 0.788826 75.8617 2.36648 73.2789C3.94413 70.6961 6.04015 68.725 8.65455 67.3656C14.2439 64.5562 19.9235 62.4492 25.6932 61.0445C31.4629 59.6398 37.3227 58.9375 43.2727 58.9375C49.2227 58.9375 55.0826 59.6398 60.8523 61.0445C66.622 62.4492 72.3015 64.5562 77.8909 67.3656C80.5053 68.725 82.6013 70.6961 84.179 73.2789C85.7566 75.8617 86.5455 78.6937 86.5455 81.775V97H0ZM97.3636 97V80.6875C97.3636 76.7 96.2593 72.8711 94.0506 69.2008C91.8419 65.5305 88.7091 62.3812 84.6523 59.7531C89.25 60.2969 93.5773 61.2258 97.6341 62.5398C101.691 63.8539 105.477 65.4625 108.993 67.3656C112.239 69.1781 114.718 71.1945 116.431 73.4148C118.144 75.6352 119 78.0594 119 80.6875V97H97.3636ZM43.2727 53.5C37.3227 53.5 32.2292 51.3703 27.992 47.1109C23.7549 42.8516 21.6364 37.7312 21.6364 31.75C21.6364 25.7687 23.7549 20.6484 27.992 16.3891C32.2292 12.1297 37.3227 10 43.2727 10C49.2227 10 54.3163 12.1297 58.5534 16.3891C62.7905 20.6484 64.9091 25.7687 64.9091 31.75C64.9091 37.7312 62.7905 42.8516 58.5534 47.1109C54.3163 51.3703 49.2227 53.5 43.2727 53.5ZM97.3636 31.75C97.3636 37.7312 95.2451 42.8516 91.008 47.1109C86.7708 51.3703 81.6773 53.5 75.7273 53.5C74.7356 53.5 73.4735 53.3867 71.9409 53.1602C70.4083 52.9336 69.1462 52.6844 68.1545 52.4125C70.5886 49.5125 72.4593 46.2953 73.7665 42.7609C75.0737 39.2266 75.7273 35.5562 75.7273 31.75C75.7273 27.9438 75.0737 24.2734 73.7665 20.7391C72.4593 17.2047 70.5886 13.9875 68.1545 11.0875C69.4167 10.6344 70.6788 10.3398 71.9409 10.2039C73.203 10.068 74.4652 10 75.7273 10C81.6773 10 86.7708 12.1297 91.008 16.3891C95.2451 20.6484 97.3636 25.7687 97.3636 31.75ZM10.8182 86.125H75.7273V81.775C75.7273 80.7781 75.4794 79.8719 74.9835 79.0563C74.4877 78.2406 73.8341 77.6062 73.0227 77.1531C68.1545 74.7062 63.2413 72.8711 58.283 71.6477C53.3246 70.4242 48.3212 69.8125 43.2727 69.8125C38.2242 69.8125 33.2208 70.4242 28.2625 71.6477C23.3042 72.8711 18.3909 74.7062 13.5227 77.1531C12.7114 77.6062 12.0578 78.2406 11.5619 79.0563C11.0661 79.8719 10.8182 80.7781 10.8182 81.775V86.125ZM43.2727 42.625C46.2477 42.625 48.7945 41.5602 50.9131 39.4305C53.0316 37.3008 54.0909 34.7406 54.0909 31.75C54.0909 28.7594 53.0316 26.1992 50.9131 24.0695C48.7945 21.9398 46.2477 20.875 43.2727 20.875C40.2977 20.875 37.7509 21.9398 35.6324 24.0695C33.5138 26.1992 32.4545 28.7594 32.4545 31.75C32.4545 34.7406 33.5138 37.3008 35.6324 39.4305C37.7509 41.5602 40.2977 42.625 43.2727 42.625Z" fill="#E8EAED"/>
</svg>
