<svg width="104" height="130" viewBox="0 0 104 130" fill="none" xmlns="http://www.w3.org/2000/svg">
<path d="M25.8333 103.333H77.5V90.4167H25.8333V103.333ZM25.8333 77.5H77.5V64.5833H25.8333V77.5ZM12.9167 129.167C9.36458 129.167 6.32379 127.902 3.79427 125.372C1.26476 122.843 0 119.802 0 116.25V12.9167C0 9.36458 1.26476 6.32379 3.79427 3.79427C6.32379 1.26476 9.36458 0 12.9167 0H64.5833L103.333 38.75V116.25C103.333 119.802 102.069 122.843 99.5391 125.372C97.0096 127.902 93.9688 129.167 90.4167 129.167H12.9167ZM58.125 45.2083V12.9167H12.9167V116.25H90.4167V45.2083H58.125Z" fill="#E8EAED"/>
</svg>
