<svg width="535" height="270" viewBox="0 0 535 270" fill="none" xmlns="http://www.w3.org/2000/svg">
<path d="M62.3474 211.489L60.8741 204.134C59.8919 203.726 58.9712 203.297 58.1118 202.847C57.2523 202.398 56.3723 201.846 55.472 201.193L48.3512 203.399L43.4402 195.064L49.0879 190.16C48.9242 189.098 48.8423 188.036 48.8423 186.973C48.8423 185.911 48.9242 184.849 49.0879 183.786L43.4402 178.883L48.3512 170.548L55.472 172.754C56.3723 172.101 57.2523 171.549 58.1118 171.099C58.9712 170.65 59.8919 170.221 60.8741 169.812L62.3474 162.458H72.1692L73.6425 169.812C74.6247 170.221 75.5457 170.65 76.4051 171.099C77.2645 171.549 78.1443 172.101 79.0447 172.754L86.1657 170.548L91.0765 178.883L85.429 183.786C85.5927 184.849 85.6745 185.911 85.6745 186.973C85.6745 188.036 85.5927 189.098 85.429 190.16L91.0765 195.064L86.1657 203.399L79.0447 201.193C78.1443 201.846 77.2645 202.398 76.4051 202.847C75.5457 203.297 74.6247 203.726 73.6425 204.134L72.1692 211.489H62.3474ZM67.2584 196.78C69.9593 196.78 72.2717 195.82 74.1951 193.899C76.1186 191.979 77.0803 189.67 77.0803 186.973C77.0803 184.277 76.1186 181.968 74.1951 180.048C72.2717 178.127 69.9593 177.167 67.2584 177.167C64.5574 177.167 62.245 178.127 60.3217 180.048C58.3982 181.968 57.4364 184.277 57.4364 186.973C57.4364 189.67 58.3982 191.979 60.3217 193.899C62.245 195.82 64.5574 196.78 67.2584 196.78ZM106.3 265.424L104.09 255.127C102.699 254.637 101.41 254.045 100.223 253.349C99.0363 252.656 97.87 251.857 96.7241 250.96L86.9021 254.146L80.0269 242.38L87.8843 235.516C87.7206 234.044 87.6387 232.573 87.6387 231.102C87.6387 229.63 87.7206 228.16 87.8843 226.689L80.0269 219.824L86.9021 208.057L96.7241 211.244C97.87 210.345 99.0363 209.548 100.223 208.854C101.41 208.159 102.699 207.567 104.09 207.076L106.3 196.78H120.051L122.261 207.076C123.652 207.567 124.942 208.159 126.129 208.854C127.315 209.548 128.482 210.345 129.628 211.244L139.449 208.057L146.325 219.824L138.467 226.689C138.631 228.16 138.713 229.63 138.713 231.102C138.713 232.573 138.631 234.044 138.467 235.516L146.325 242.38L139.449 254.146L129.628 250.96C128.482 251.857 127.315 252.656 126.129 253.349C124.942 254.045 123.652 254.637 122.261 255.127L120.051 265.424H106.3ZM113.176 245.812C117.268 245.812 120.747 244.382 123.612 241.522C126.476 238.662 127.909 235.188 127.909 231.102C127.909 227.016 126.476 223.543 123.612 220.682C120.747 217.822 117.268 216.392 113.176 216.392C109.083 216.392 105.605 217.822 102.74 220.682C99.8754 223.543 98.443 227.016 98.443 231.102C98.443 235.188 99.8754 238.662 102.74 241.522C105.605 244.382 109.083 245.812 113.176 245.812Z" fill="#BAC8DE"/>
<path d="M33.6028 34.8584V148.729H10.1589V34.8584H33.6028ZM101.746 34.8584L56.6558 91.0898L30.6331 119.088L26.4132 96.8771L43.9962 72.789L72.9881 34.8584H101.746ZM75.0982 148.729L41.5736 96.0951L58.922 81.5482L102.84 148.729H75.0982ZM135.349 34.8584V148.729H111.905V34.8584H135.349ZM203.492 34.8584L158.402 91.0898L132.379 119.088L128.159 96.8771L145.742 72.789L174.734 34.8584H203.492ZM176.844 148.729L143.319 96.0951L160.668 81.5482L204.586 148.729H176.844ZM230.139 87.8049L252.019 73.6494C255.25 71.5118 257.413 69.4522 258.506 67.4709C259.601 65.4896 260.147 63.2738 260.147 60.8232C260.147 58.3729 259.235 56.1049 257.413 54.0192C255.588 51.8816 253.037 50.8126 249.753 50.8126C247.41 50.8126 245.43 51.3602 243.816 52.455C242.199 53.4977 240.976 54.9056 240.142 56.6783C239.36 58.4509 238.969 60.4322 238.969 62.6221C238.969 64.9684 239.595 67.3666 240.846 69.8172C242.097 72.2156 243.788 74.7703 245.924 77.4815C248.062 80.1406 250.433 83.0344 253.037 86.1625L306.722 148.729H281.17L237.407 98.0503C233.708 93.4621 230.477 89.2647 227.717 85.4586C224.956 81.6004 222.794 77.8465 221.231 74.1969C219.668 70.5471 218.887 66.7932 218.887 62.9349C218.887 56.991 220.163 51.8034 222.716 47.3715C225.268 42.8877 228.863 39.4205 233.5 36.9699C238.137 34.4673 243.58 33.2159 249.831 33.2159C255.719 33.2159 260.824 34.4412 265.15 36.8916C269.473 39.29 272.806 42.4705 275.152 46.4331C277.548 50.3955 278.746 54.7491 278.746 59.4938C278.746 63.0393 278.095 66.3239 276.792 69.3479C275.491 72.3197 273.694 75.0831 271.4 77.638C269.107 80.1406 266.478 82.4607 263.508 84.5985L238.58 102.352C236.651 104.124 235.192 105.871 234.204 107.592C233.214 109.312 232.535 110.954 232.172 112.519C231.806 114.031 231.625 115.49 231.625 116.898C231.625 119.922 232.275 122.634 233.578 125.032C234.881 127.43 236.703 129.307 239.049 130.663C241.392 132.018 244.127 132.696 247.255 132.696C251.525 132.696 255.668 131.758 259.678 129.881C263.691 128.004 267.285 125.319 270.463 121.825C273.641 118.28 276.167 114.083 278.042 109.234C279.919 104.385 280.857 99.0408 280.857 93.2012H299.925C299.925 99.0408 299.351 104.594 298.205 109.86C297.058 115.073 295.208 119.922 292.656 124.406C290.103 128.838 286.716 132.774 282.498 136.215C282.185 136.476 281.741 136.867 281.17 137.389C280.649 137.858 280.205 138.223 279.839 138.484C274.839 142.498 269.629 145.496 264.212 147.477C258.794 149.407 252.751 150.371 246.082 150.371C238.475 150.371 231.886 148.989 226.31 146.226C220.788 143.463 216.516 139.657 213.494 134.808C210.525 129.959 209.04 124.406 209.04 118.149C209.04 113.561 209.926 109.573 211.697 106.184C213.52 102.743 216.021 99.5623 219.199 96.6424C222.377 93.7227 226.024 90.777 230.139 87.8049ZM318.99 34.8584H361.424C370.124 34.8584 377.6 36.1617 383.853 38.7688C390.157 41.3757 395.001 45.2339 398.387 50.3436C401.773 55.453 403.468 61.7357 403.468 69.1916C403.468 75.2918 402.425 80.5316 400.342 84.9113C398.31 89.2389 395.418 92.8624 391.668 95.7823C387.969 98.6498 383.618 100.944 378.618 102.665L371.194 106.575H334.309L334.151 88.2742H361.58C365.698 88.2742 369.109 87.5443 371.818 86.0845C374.527 84.6244 376.56 82.5912 377.913 79.9843C379.319 77.3772 380.024 74.3532 380.024 70.9121C380.024 67.2625 379.347 64.1081 377.991 61.449C376.638 58.79 374.58 56.7565 371.818 55.3489C369.056 53.941 365.592 53.2371 361.424 53.2371H342.434V148.729H318.99V34.8584ZM382.603 148.729L356.657 97.972L381.43 97.8155L407.686 147.634V148.729H382.603Z" fill="#F49910"/>
<path d="M205.365 226.51C205.365 225.02 205.03 223.642 204.36 222.376C203.728 221.073 202.407 219.899 200.397 218.857C198.425 217.777 195.448 216.845 191.466 216.063C188.117 215.356 185.084 214.518 182.368 213.55C179.689 212.581 177.4 211.408 175.502 210.03C173.642 208.652 172.209 207.032 171.204 205.17C170.199 203.308 169.697 201.129 169.697 198.634C169.697 196.251 170.218 193.998 171.26 191.875C172.339 189.752 173.846 187.872 175.781 186.233C177.753 184.594 180.116 183.309 182.87 182.378C185.624 181.447 188.694 180.982 192.08 180.982C196.918 180.982 201.048 181.838 204.472 183.552C207.896 185.264 210.519 187.555 212.342 190.423C214.166 193.253 215.078 196.4 215.078 199.863H204.751C204.751 198.187 204.249 196.567 203.244 195.003C202.276 193.402 200.844 192.08 198.946 191.037C197.085 189.994 194.797 189.473 192.08 189.473C189.215 189.473 186.889 189.92 185.103 190.814C183.354 191.67 182.07 192.769 181.252 194.109C180.47 195.45 180.079 196.865 180.079 198.355C180.079 199.472 180.265 200.478 180.637 201.371C181.047 202.228 181.754 203.029 182.759 203.774C183.763 204.481 185.177 205.152 187.001 205.785C188.824 206.418 191.15 207.051 193.978 207.684C198.927 208.801 203.002 210.142 206.202 211.706C209.403 213.27 211.784 215.188 213.347 217.46C214.91 219.732 215.691 222.488 215.691 225.728C215.691 228.372 215.133 230.793 214.017 232.989C212.938 235.186 211.356 237.087 209.272 238.687C207.226 240.252 204.77 241.481 201.904 242.375C199.076 243.231 195.895 243.659 192.359 243.659C187.038 243.659 182.535 242.709 178.851 240.81C175.167 238.911 172.376 236.454 170.479 233.438C168.581 230.42 167.632 227.236 167.632 223.884H178.014C178.163 226.715 178.981 228.967 180.47 230.644C181.959 232.282 183.782 233.456 185.94 234.163C188.099 234.834 190.238 235.168 192.359 235.168C195.187 235.168 197.551 234.797 199.448 234.051C201.383 233.307 202.853 232.282 203.858 230.978C204.863 229.676 205.365 228.186 205.365 226.51ZM246.223 236.287L263.026 182.099H274.078L249.852 251.871C249.294 253.361 248.551 254.962 247.62 256.676C246.726 258.427 245.574 260.083 244.159 261.648C242.746 263.211 241.033 264.479 239.024 265.447C237.051 266.451 234.689 266.954 231.934 266.954C231.115 266.954 230.075 266.842 228.809 266.618C227.544 266.396 226.65 266.209 226.13 266.06L226.074 257.681C226.372 257.717 226.837 257.756 227.469 257.793C228.139 257.868 228.604 257.905 228.866 257.905C231.209 257.905 233.201 257.589 234.838 256.955C236.475 256.358 237.851 255.335 238.969 253.882C240.121 252.468 241.107 250.512 241.925 248.018L246.223 236.287ZM233.889 182.099L249.573 229.024L252.252 239.918L244.829 243.716L222.613 182.099H233.889ZM318.565 226.51C318.565 225.02 318.229 223.642 317.561 222.376C316.928 221.073 315.607 219.899 313.597 218.857C311.624 217.777 308.647 216.845 304.666 216.063C301.317 215.356 298.285 214.518 295.567 213.55C292.887 212.581 290.601 211.408 288.701 210.03C286.842 208.652 285.409 207.032 284.405 205.17C283.399 203.308 282.896 201.129 282.896 198.634C282.896 196.251 283.417 193.998 284.46 191.875C285.539 189.752 287.046 187.872 288.982 186.233C290.953 184.594 293.317 183.309 296.07 182.378C298.825 181.447 301.893 180.982 305.279 180.982C310.117 180.982 314.248 181.838 317.671 183.552C321.096 185.264 323.718 187.555 325.543 190.423C327.365 193.253 328.277 196.4 328.277 199.863H317.95C317.95 198.187 317.449 196.567 316.443 195.003C315.476 193.402 314.043 192.08 312.145 191.037C310.286 189.994 307.998 189.473 305.279 189.473C302.414 189.473 300.089 189.92 298.304 190.814C296.555 191.67 295.27 192.769 294.451 194.109C293.669 195.45 293.278 196.865 293.278 198.355C293.278 199.472 293.466 200.478 293.838 201.371C294.248 202.228 294.954 203.029 295.958 203.774C296.964 204.481 298.377 205.152 300.201 205.785C302.023 206.418 304.351 207.051 307.177 207.684C312.127 208.801 316.201 210.142 319.402 211.706C322.603 213.27 324.985 215.188 326.547 217.46C328.11 219.732 328.892 222.488 328.892 225.728C328.892 228.372 328.332 230.793 327.217 232.989C326.137 235.186 324.555 237.087 322.472 238.687C320.426 240.252 317.971 241.481 315.104 242.375C312.275 243.231 309.095 243.659 305.558 243.659C300.238 243.659 295.736 242.709 292.051 240.81C288.367 238.911 285.576 236.454 283.678 233.438C281.78 230.42 280.832 227.236 280.832 223.884H291.214C291.362 226.715 292.181 228.967 293.669 230.644C295.158 232.282 296.982 233.456 299.14 234.163C301.299 234.834 303.439 235.168 305.558 235.168C308.386 235.168 310.75 234.797 312.648 234.051C314.582 233.307 316.052 232.282 317.058 230.978C318.062 229.676 318.565 228.186 318.565 226.51ZM367.742 182.099V190.031H335.088V182.099H367.742ZM346.14 167.407H356.465V227.571C356.465 229.619 356.781 231.166 357.414 232.207C358.048 233.25 358.866 233.939 359.87 234.275C360.876 234.609 361.955 234.776 363.107 234.776C363.965 234.776 364.856 234.703 365.787 234.555C366.754 234.367 367.481 234.218 367.963 234.106L368.021 242.542C367.202 242.803 366.123 243.046 364.783 243.268C363.48 243.529 361.898 243.659 360.039 243.659C357.508 243.659 355.183 243.158 353.061 242.151C350.939 241.147 349.248 239.469 347.981 237.124C346.753 234.74 346.14 231.536 346.14 227.515V167.407ZM404.917 243.659C400.71 243.659 396.897 242.952 393.474 241.538C390.088 240.085 387.166 238.055 384.711 235.447C382.292 232.841 380.431 229.749 379.128 226.175C377.827 222.599 377.175 218.689 377.175 214.443V212.097C377.175 207.181 377.9 202.805 379.352 198.969C380.803 195.096 382.774 191.819 385.269 189.138C387.761 186.456 390.589 184.426 393.753 183.049C396.915 181.671 400.189 180.982 403.577 180.982C407.894 180.982 411.614 181.726 414.739 183.216C417.904 184.706 420.489 186.792 422.499 189.473C424.509 192.117 425.997 195.245 426.964 198.858C427.931 202.433 428.416 206.343 428.416 210.589V215.225H383.314V206.79H418.089V206.008C417.94 203.327 417.382 200.72 416.415 198.187C415.485 195.655 413.996 193.569 411.95 191.931C409.904 190.292 407.112 189.473 403.577 189.473C401.232 189.473 399.073 189.976 397.103 190.981C395.13 191.949 393.435 193.402 392.022 195.338C390.607 197.275 389.51 199.64 388.728 202.433C387.948 205.226 387.557 208.448 387.557 212.097V214.443C387.557 217.311 387.948 220.011 388.728 222.544C389.549 225.039 390.719 227.236 392.246 229.136C393.808 231.035 395.687 232.525 397.882 233.605C400.116 234.685 402.647 235.225 405.475 235.225C409.122 235.225 412.211 234.479 414.739 232.989C417.27 231.5 419.486 229.507 421.383 227.013L427.634 231.985C426.331 233.957 424.676 235.838 422.666 237.627C420.656 239.414 418.182 240.867 415.242 241.984C412.341 243.101 408.898 243.659 404.917 243.659ZM450.742 194.109V242.542H440.36V182.099H450.184L450.742 194.109ZM448.623 210.03L443.821 209.863C443.858 205.729 444.398 201.911 445.44 198.411C446.483 194.873 448.026 191.8 450.072 189.194C452.121 186.586 454.67 184.575 457.72 183.16C460.772 181.708 464.307 180.982 468.326 180.982C471.154 180.982 473.758 181.391 476.141 182.211C478.523 182.993 480.588 184.24 482.337 185.954C484.086 187.667 485.444 189.864 486.411 192.545C487.378 195.227 487.863 198.467 487.863 202.265V242.542H477.535V202.768C477.535 199.603 476.996 197.07 475.917 195.171C474.874 193.271 473.386 191.894 471.452 191.037C469.517 190.143 467.247 189.696 464.643 189.696C461.591 189.696 459.041 190.236 456.995 191.316C454.949 192.396 453.312 193.886 452.082 195.785C450.854 197.685 449.962 199.863 449.405 202.321C448.883 204.742 448.623 207.312 448.623 210.03ZM487.751 204.332L480.83 206.455C480.867 203.14 481.406 199.956 482.449 196.903C483.528 193.849 485.071 191.13 487.081 188.747C489.127 186.363 491.64 184.483 494.617 183.104C497.593 181.689 500.998 180.982 504.832 180.982C508.069 180.982 510.934 181.41 513.426 182.266C515.957 183.123 518.079 184.445 519.791 186.233C521.54 187.983 522.86 190.236 523.754 192.992C524.647 195.748 525.093 199.025 525.093 202.824V242.542H514.711V202.712C514.711 199.323 514.172 196.698 513.092 194.836C512.05 192.936 510.561 191.614 508.627 190.869C506.73 190.087 504.459 189.696 501.816 189.696C499.546 189.696 497.539 190.087 495.79 190.869C494.04 191.651 492.57 192.732 491.379 194.109C490.188 195.45 489.276 196.996 488.645 198.746C488.048 200.496 487.751 202.359 487.751 204.332Z" fill="#CE7C02"/>
</svg>
